<?xml version="1.0" encoding="UTF-8"?>
<!DOCTYPE svg PUBLIC "-//W3C//DTD SVG 1.1//EN" "http://www.w3.org/Graphics/SVG/1.1/DTD/svg11.dtd">
<!-- Creator: CorelDRAW -->
<svg xmlns="http://www.w3.org/2000/svg" xml:space="preserve" width="130.957mm" height="137.539mm" version="1.1" style="shape-rendering:geometricPrecision; text-rendering:geometricPrecision; image-rendering:optimizeQuality; fill-rule:evenodd; clip-rule:evenodd"
viewBox="0 0 570.05 598.7"
 xmlns:xlink="http://www.w3.org/1999/xlink"
 xmlns:xodm="http://www.corel.com/coreldraw/odm/2003">
 <defs>
  <style type="text/css">
   <![CDATA[
    .fil0 {fill:none}
    .fil1 {fill:url(#id0)}
   ]]>
  </style>
  <linearGradient id="id0" gradientUnits="userSpaceOnUse" x1="33.37" y1="299.35" x2="532.16" y2="299.35">
   <stop offset="0" style="stop-opacity:1; stop-color:#99FCAC"/>
   <stop offset="1" style="stop-opacity:1; stop-color:#08B99D"/>
  </linearGradient>
 </defs>
 <g id="Katman_x0020_1">
  <metadata id="CorelCorpID_0Corel-Layer"/>
  <path class="fil0" d="M266.19 0c167.82,0 303.87,134.02 303.87,299.35 0,165.33 -136.05,299.35 -303.87,299.35"/>
  <path class="fil0" d="M266.19 144.54c85.5,0 154.81,69.31 154.81,154.81 0,85.5 -69.31,154.82 -154.81,154.82"/>
  <polyline class="fil0" points="266.19,144.54 149.36,144.54 149.36,454.17 266.19,454.17 "/>
  <polyline class="fil0" points="266.19,0 -0,0 -0,598.7 266.19,598.7 "/>
  <path class="fil0" d="M266.19 111.16c103.93,0 188.19,84.25 188.19,188.19 0,103.93 -84.25,188.19 -188.19,188.19 -0.15,0 -0.31,-0 -0.46,-0"/>
  <path class="fil0" d="M266.19 111.16l-150.2 0m0 33.37l0 343m33.37 0l116.83 0"/>
  <path class="fil0" d="M266.19 33.37c146.9,0 265.98,119.08 265.98,265.98 0,146.9 -119.08,265.98 -265.98,265.98"/>
  <path class="fil0" d="M149.36 565.33l116.83 0m0 -531.96l-232.81 0 0 77.79m0 33.37l0 420.79 82.61 0"/>
  <path class="fil0" d="M33.37 111.16l115.99 0m-33.37 33.37l-82.61 0"/>
  <path class="fil0" d="M115.99 565.33l0 -77.79m33.37 0l0 77.79"/>
  <path class="fil1" d="M115.99 487.54l0 -343 -82.61 0 0 420.79 82.61 0 0 -77.79zm33.37 -376.38l116.83 0c103.93,0 188.19,84.25 188.19,188.19 0,103.93 -84.25,188.19 -188.19,188.19l-0.46 -0 -116.36 0 0 77.79 116.83 0c146.9,0 265.98,-119.08 265.98,-265.98 0,-146.9 -119.08,-265.98 -265.98,-265.98l-232.81 0 0 77.79 82.61 0 33.37 0zm116.83 33.37l-116.83 0 0 309.63 116.83 0c85.5,0 154.81,-69.31 154.81,-154.82 0,-85.5 -69.31,-154.81 -154.81,-154.81z"/>
 </g>
</svg>
