<?xml version="1.0" encoding="UTF-8"?>
<!DOCTYPE svg PUBLIC "-//W3C//DTD SVG 1.1//EN" "http://www.w3.org/Graphics/SVG/1.1/DTD/svg11.dtd">
<!-- Creator: CorelDRAW -->
<svg xmlns="http://www.w3.org/2000/svg" xml:space="preserve" width="274.211mm" height="274.211mm" version="1.1" style="shape-rendering:geometricPrecision; text-rendering:geometricPrecision; image-rendering:optimizeQuality; fill-rule:evenodd; clip-rule:evenodd"
viewBox="0 0 3137.13 3137.13"
 xmlns:xlink="http://www.w3.org/1999/xlink"
 xmlns:xodm="http://www.corel.com/coreldraw/odm/2003">
 <defs>
  <style type="text/css">
   <![CDATA[
    .fil1 {fill:#FEFEFE}
    .fil0 {fill:url(#id0)}
   ]]>
  </style>
  <linearGradient id="id0" gradientUnits="userSpaceOnUse" x1="-0" y1="1568.57" x2="3137.13" y2="1568.57">
   <stop offset="0" style="stop-opacity:1; stop-color:#99FCAC"/>
   <stop offset="1" style="stop-opacity:1; stop-color:#08B99D"/>
  </linearGradient>
 </defs>
 <g id="Katman_x0020_1">
  <metadata id="CorelCorpID_0Corel-Layer"/>
  <path class="fil0" d="M1568.56 345.16c675,0 1222.61,547.6 1222.61,1223.42 0,675.8 -547.6,1222.59 -1222.61,1222.59 -675.81,0 -1223.4,-546.8 -1223.4,-1222.59 0,-201.35 48.62,-391.31 134.75,-558.8l-253.43 -253.42c-143.72,236.93 -226.49,514.93 -226.49,812.22 0,866.14 702.43,1568.56 1568.56,1568.56 866.15,0 1568.57,-702.42 1568.57,-1568.56 0,-866.15 -702.42,-1568.57 -1568.57,-1568.57 -298.04,0 -576.68,83.18 -814,227.57l251.54 254.27c168.39,-87.31 359.63,-136.68 562.46,-136.68zm0 787.95c240.33,0 435.49,195.14 435.49,435.47 0,240.32 -195.16,435.49 -435.49,435.49 -240.32,0 -435.49,-195.16 -435.49,-435.49 0,-73.07 18.07,-141.96 49.94,-202.46l-89.84 -89.83c-52.42,85.02 -82.69,185.14 -82.69,292.29 0,308.07 250,558.07 558.07,558.07 308.07,0 558.08,-250 558.08,-558.07 0,-308.06 -250.01,-558.08 -558.08,-558.08 -108.83,0 -210.39,31.24 -296.27,85.18l89.59 89.6c61.51,-33.26 131.9,-52.16 206.67,-52.16zm0 -313.72c413.71,0 748.38,335.47 748.38,749.19 0,413.71 -334.66,749.21 -748.38,749.21 -413.71,0 -749.2,-335.5 -749.2,-749.21 0,-160.11 50.28,-308.48 135.86,-430.24l-11.5 -11.5 -228.28 0c-68.59,132.23 -107.36,282.44 -107.36,441.75 0,530.65 429.84,960.5 960.49,960.5 530.64,0 960.51,-429.85 960.51,-960.5 0,-530.64 -429.87,-960.51 -960.51,-960.51 -160.62,0 -311.97,39.44 -444.99,109.08l0 229.8 10.95 10.95c122.47,-87.2 272.27,-138.5 434.04,-138.5z"/>
  <path class="fil1" d="M1579.05 1460.51c0,-0.81 -0.81,-1.61 -0.81,-1.61l-495.17 -495.18 0 -310.49c0,-23.37 -8.87,-45.16 -25,-61.27l-520.17 -525.81c-25,-25.02 -62.1,-32.29 -94.36,-19.37 -32.26,13.72 -53.23,45.16 -53.23,80.64l0 259.68 -266.13 0c-35.48,0 -66.94,20.99 -79.84,54.04 -13.71,32.25 -6.45,69.38 18.55,94.36l525.81 525.81c16.13,16.14 37.9,25.02 61.29,25.02l310.49 0 495.17 495.15c0,0 0.81,0.81 1.61,0.81 33.87,32.26 84.68,33.06 119.36,0 35.48,-34.68 34.68,-87.9 2.42,-121.77l0 0z"/>
 </g>
</svg>
