<?xml version="1.0" encoding="UTF-8"?>
<!DOCTYPE svg PUBLIC "-//W3C//DTD SVG 1.1//EN" "http://www.w3.org/Graphics/SVG/1.1/DTD/svg11.dtd">
<!-- Creator: CorelDRAW -->
<svg xmlns="http://www.w3.org/2000/svg" xml:space="preserve" width="347.804mm" height="285.066mm" version="1.1" style="shape-rendering:geometricPrecision; text-rendering:geometricPrecision; image-rendering:optimizeQuality; fill-rule:evenodd; clip-rule:evenodd"
viewBox="0 0 3792.42 3108.33"
 xmlns:xlink="http://www.w3.org/1999/xlink"
 xmlns:xodm="http://www.corel.com/coreldraw/odm/2003">
 <defs>
  <style type="text/css">
   <![CDATA[
    .fil1 {fill:#FEFEFE}
    .fil0 {fill:url(#id0)}
   ]]>
  </style>
  <linearGradient id="id0" gradientUnits="userSpaceOnUse" x1="-0" y1="1900.04" x2="3792.42" y2="1900.04">
   <stop offset="0" style="stop-opacity:1; stop-color:#99FCAC"/>
   <stop offset="1" style="stop-opacity:1; stop-color:#08B99D"/>
  </linearGradient>
 </defs>
 <g id="Katman_x0020_1">
  <metadata id="CorelCorpID_0Corel-Layer"/>
  <path class="fil0" d="M1896.6 2858.53c-759.41,0 -1417.34,-722.52 -1611.83,-958.49 194.49,-235.98 850.88,-958.5 1611.83,-958.5 758.64,0 1416.57,722.52 1611.06,958.5 -194.49,236.74 -850.11,958.49 -1611.06,958.49zm0 -458.11c-275.92,0 -500.37,-224.44 -500.37,-500.37 0,-275.94 224.45,-499.63 500.37,-499.63 275.19,0 499.6,223.68 499.6,499.63 0,275.94 -224.41,500.37 -499.6,500.37zm0 -1250.57c-413.52,0 -750.18,336.66 -750.18,750.2 0,413.52 336.66,750.19 750.18,750.19 413.52,0 749.41,-336.67 749.41,-750.19 0,-413.54 -335.89,-750.2 -749.41,-750.2zm1871.59 676.41c-33.81,-46.12 -840.84,-1134.51 -1871.59,-1134.51 -1031.48,0 -1838.55,1088.39 -1872.36,1134.51 -32.31,43.81 -32.31,103.76 0,147.58 33.81,46.12 840.88,1134.5 1872.36,1134.5 1030.75,0 1837.78,-1088.39 1871.59,-1134.5 32.31,-43.81 32.31,-103.76 0,-147.58z"/>
  <path class="fil1" d="M1896.6 2112.18c116.05,0 211.37,-95.31 211.37,-212.14 0,-116.83 -95.32,-211.36 -211.37,-211.36 -116.82,0 -212.14,94.52 -212.14,211.36 0,116.83 95.32,212.14 212.14,212.14l0 0z"/>
  <path class="fil1" d="M1847.4 0l0 0c56.12,0 101.48,45.35 101.48,101.44l0 402.01c0,55.32 -45.35,101.44 -101.48,101.44l0 0c-56.08,0 -101.44,-46.12 -101.44,-101.44l0 -402.01c0,-56.08 45.35,-101.44 101.44,-101.44l0 0z"/>
  <path class="fil1" d="M2727.48 208.3l0 0c48.43,27.66 65.35,89.93 37.66,138.36l-201.37 348.16c-27.66,48.43 -89.93,65.35 -138.36,36.89l0 0c-48.39,-27.66 -65.32,-89.94 -37.66,-138.33l201.41 -348.2c27.66,-48.43 89.9,-65.35 138.33,-36.89l0 0z"/>
  <path class="fil1" d="M967.32 208.3l0 0c-48.43,27.66 -65.32,89.93 -36.89,138.36l200.6 348.16c27.7,48.43 90.7,65.35 139.13,36.89l0 0c48.43,-27.66 64.55,-89.94 36.89,-138.33l-200.6 -348.2c-28.43,-48.43 -90.7,-65.35 -139.13,-36.89l0 0z"/>
 </g>
</svg>
